<?xml version="1.0" encoding="UTF-8" standalone="no"?>
<!-- Created with Inkscape (http://www.inkscape.org/) -->

<svg
   width="1000"
   height="1000"
   viewBox="0 0 264.58333 264.58333"
   version="1.1"
   id="svg5"
   inkscape:version="1.2 (dc2aeda, 2022-05-15)"
   sodipodi:docname="acme.svg"
   xmlns:inkscape="http://www.inkscape.org/namespaces/inkscape"
   xmlns:sodipodi="http://sodipodi.sourceforge.net/DTD/sodipodi-0.dtd"
   xmlns="http://www.w3.org/2000/svg"
   xmlns:svg="http://www.w3.org/2000/svg">
  <sodipodi:namedview
     id="namedview7"
     pagecolor="#ffffff"
     bordercolor="#000000"
     borderopacity="0.25"
     inkscape:showpageshadow="2"
     inkscape:pageopacity="0.0"
     inkscape:pagecheckerboard="0"
     inkscape:deskcolor="#d1d1d1"
     inkscape:document-units="mm"
     showgrid="false"
     inkscape:zoom="0.914906"
     inkscape:cx="313.14692"
     inkscape:cy="542.6787"
     inkscape:window-width="2284"
     inkscape:window-height="1205"
     inkscape:window-x="1581"
     inkscape:window-y="130"
     inkscape:window-maximized="0"
     inkscape:current-layer="layer1" />
  <defs
     id="defs2" />
  <g
     inkscape:label="Layer 1"
     inkscape:groupmode="layer"
     id="layer1">
    <rect
       style="fill:none;stroke-width:0.264583"
       id="rect6626"
       width="264.58334"
       height="264.58334"
       x="-0.28919181"
       y="0.28919181"
       ry="19.375853"
       inkscape:export-filename="acme_logo.png"
       inkscape:export-xdpi="96"
       inkscape:export-ydpi="96" />
    <g
       id="g6745"
       transform="matrix(1.9972681,0,0,1.9972681,-147.18403,-174.62983)"
       inkscape:export-filename="acme_logo.png"
       inkscape:export-xdpi="96"
       inkscape:export-ydpi="96">
      <g
         id="g5220"
         transform="matrix(1.603202,0,0,1.603202,-48.582216,160.9022)"
         style="fill:#67536c;fill-opacity:1">
        <path
           d="m 88.217552,23.48445 -1.423626,-3.071032 h -0.01885 l -1.405473,3.071032 z m -7.701126,3.983048 5.864865,-12.526177 c 0.05655,-0.111661 0.187815,-0.204597 0.318378,-0.204597 h 0.187815 c 0.130563,0 0.262523,0.09294 0.318379,0.204597 l 5.864865,12.526177 c 0.112409,0.242049 -0.0377,0.484097 -0.318379,0.484097 h -2.079932 c -0.33723,0 -0.487343,-0.111661 -0.656307,-0.465371 l -0.674459,-1.470322 h -5.096149 l -0.674459,1.489048 c -0.09356,0.223323 -0.300225,0.446645 -0.67446,0.446645 h -2.061081 c -0.281374,0 -0.431486,-0.242048 -0.319076,-0.484097 z"
           id="Fill-85"
           fill="#646384"
           style="fill:#67536c;fill-opacity:1" />
        <path
           d="m 107.79775,14.736655 c 1.87397,0 3.26059,0.577032 4.5348,1.731097 0.16827,0.148419 0.16827,0.371741 0.0182,0.520854 l -1.46133,1.507775 c -0.13126,0.130387 -0.33723,0.130387 -0.46849,0 -0.69331,-0.614484 -1.61144,-0.949468 -2.52957,-0.949468 -2.11694,0 -3.67252,1.749822 -3.67252,3.834629 0,2.065387 1.57444,3.777758 3.69137,3.777758 0.88043,0 1.83626,-0.316258 2.51072,-0.89329 0.13126,-0.111662 0.37494,-0.111662 0.48735,0.01872 l 1.46132,1.544533 c 0.13127,0.130387 0.11241,0.372435 -0.0189,0.502822 -1.27421,1.228274 -2.88565,1.805307 -4.55295,1.805307 -3.74723,0 -6.76414,-2.959371 -6.76414,-6.681645 0,-3.722275 3.01691,-6.719097 6.76414,-6.719097"
           id="Fill-86"
           fill="#646384"
           style="fill:#67536c;fill-opacity:1" />
        <path
           d="m 123.38677,15.034465 c 0.0189,-0.167839 0.18712,-0.297533 0.33723,-0.297533 h 0.29953 c 0.0943,0 0.26252,0.07421 0.31908,0.185871 l 4.34698,8.040307 h 0.0377 l 4.34698,-8.040307 c 0.0559,-0.111661 0.22412,-0.185871 0.31838,-0.185871 h 0.29953 c 0.15011,0 0.31838,0.129694 0.33723,0.297533 l 2.11763,12.507451 c 0.037,0.242048 -0.13126,0.409194 -0.35608,0.409194 h -2.21119 c -0.16897,0 -0.33723,-0.14842 -0.35608,-0.297533 l -0.84343,-5.750903 h -0.037 l -3.14818,6.030403 c -0.0558,0.111662 -0.22482,0.204597 -0.31838,0.204597 h -0.33723 c -0.11241,0 -0.26252,-0.09294 -0.31837,-0.204597 l -3.16633,-6.030403 h -0.0377 l -0.82458,5.750903 c -0.0189,0.149113 -0.16896,0.297533 -0.35608,0.297533 h -2.21119 c -0.22482,0 -0.39309,-0.167146 -0.35538,-0.409194 z"
           id="Fill-87"
           fill="#646384"
           style="fill:#67536c;fill-opacity:1" />
        <path
           d="m 146.03967,15.276443 c 0,-0.18587 0.15012,-0.353709 0.35608,-0.353709 h 7.75699 c 0.20596,0 0.35608,0.167839 0.35608,0.353709 v 2.02863 c 0,0.18587 -0.15012,0.353709 -0.35608,0.353709 h -5.19041 v 2.308129 h 4.27228 c 0.18711,0 0.35608,0.167145 0.35608,0.35371 v 2.028629 c 0,0.204597 -0.16897,0.35371 -0.35608,0.35371 h -4.27228 v 2.512725 h 5.19041 c 0.20596,0 0.35608,0.167146 0.35608,0.353017 v 2.029322 c 0,0.185871 -0.15012,0.35371 -0.35608,0.35371 h -7.75699 c -0.20596,0 -0.35608,-0.167839 -0.35608,-0.35371 z"
           id="Fill-88"
           fill="#646384"
           style="fill:#67536c;fill-opacity:1" />
      </g>
      <path
         d="m 166.97582,153.25088 c 0.34104,-1.72935 0.52169,-3.5157 0.52169,-5.34286 0,-4.5723 -1.11952,-8.88869 -3.0971,-12.6922 1.97758,-3.80263 3.0971,-8.11902 3.0971,-12.69132 0,-1.82795 -0.18065,-3.61351 -0.52169,-5.34286 5.29774,4.23973 8.69887,10.74687 8.69887,18.03418 0,7.28827 -3.40113,13.79454 -8.69887,18.03506 z M 139.78418,171.025 c -7.30475,0 -13.82583,-3.39338 -18.07598,-8.67914 1.73323,0.34016 3.52366,0.51993 5.35496,0.51993 4.58358,0 8.90887,-1.11696 12.72102,-3.09005 3.81214,1.97309 8.13752,3.09005 12.72102,3.09005 1.8313,0 3.62179,-0.17977 5.35501,-0.51993 -4.25012,5.28576 -10.77128,8.67914 -18.07603,8.67914 z M 103.8937,135.21582 c 0,-7.28731 3.4011,-13.79445 8.69887,-18.03418 -0.34077,1.72935 -0.52134,3.51491 -0.52134,5.34286 0,4.5723 1.11954,8.88869 3.09711,12.69132 -1.97757,3.80351 -3.09711,8.1199 -3.09711,12.6922 0,1.82716 0.18057,3.61351 0.52134,5.34286 -5.29777,-4.24052 -8.69887,-10.74679 -8.69887,-18.03506 z m 50.3611,5.34285 c 0.34104,-1.72925 0.5217,-3.51481 0.5217,-5.34285 0,-1.82707 -0.18066,-3.61352 -0.52081,-5.34277 1.89175,1.51485 3.5409,3.31751 4.8802,5.34277 -1.3393,2.02614 -2.98845,3.8288 -4.881,5.34285 z m -19.82555,9.09579 c 1.73322,0.34015 3.52363,0.51993 5.35493,0.51993 1.8313,0 3.6218,-0.17978 5.35501,-0.51993 -1.51749,1.88752 -3.32429,3.53358 -5.35501,4.8691 -2.03064,-1.33552 -3.83744,-2.98158 -5.35493,-4.8691 z m -9.1157,-19.78141 c -0.34192,1.72925 -0.52169,3.5157 -0.52169,5.34277 0,1.82804 0.17977,3.6136 0.52169,5.34285 -1.89254,-1.51405 -3.54161,-3.31671 -4.88097,-5.34285 1.33936,-2.02526 2.98843,-3.82792 4.88097,-5.34277 z m 24.9199,5.34277 c 0,3.08274 -0.61334,6.0237 -1.71524,8.71509 -2.69755,1.09987 -5.64512,1.71048 -8.73403,1.71048 -3.08891,0 -6.03648,-0.6107 -8.73403,-1.71048 -1.10234,-2.69139 -1.71525,-5.63235 -1.71525,-8.71509 0,-3.08186 0.61247,-6.02282 1.71525,-8.71421 2.69755,-1.09987 5.64512,-1.71048 8.73403,-1.71048 3.08891,0 6.03648,0.6107 8.73403,1.71048 1.10234,2.69139 1.71524,5.63235 1.71524,8.71421 z m -5.09426,-14.43776 c -1.73321,-0.34015 -3.52371,-0.51993 -5.35501,-0.51993 -1.8313,0 -3.62171,0.18066 -5.35493,0.51993 1.51749,-1.88831 3.32429,-3.53358 5.35493,-4.86998 2.03072,1.3364 3.83752,2.98167 5.35501,4.86998 z m -28.52447,1.74644 c 0,-3.08275 0.61211,-6.02361 1.71444,-8.715 2.69751,-1.09908 5.64508,-1.71057 8.734,-1.71057 2.88218,0 5.64098,0.53227 8.18899,1.49608 -3.19766,2.54466 -5.81996,5.77986 -7.6398,9.47736 -3.70512,1.8149 -6.94769,4.4313 -9.49892,7.62173 -0.96591,-2.5414 -1.49871,-5.29395 -1.49871,-8.1696 z m 0,25.38352 c 0,-2.87565 0.5328,-5.6282 1.49871,-8.16951 2.55123,3.19034 5.7938,5.80674 9.49892,7.62164 1.81984,3.6975 4.44214,6.93191 7.6398,9.47736 -2.54801,0.96372 -5.30681,1.49608 -8.18899,1.49608 -3.08892,0 -6.03649,-0.61158 -8.734,-1.71136 -1.10237,-2.69139 -1.71444,-5.63226 -1.71444,-8.71421 z m 46.33896,0 c 0,3.08195 -0.61246,6.02282 -1.71445,8.71421 -2.69747,1.09987 -5.64503,1.71136 -8.73403,1.71136 -2.88218,0 -5.64098,-0.53227 -8.1889,-1.49608 3.19757,-2.54545 5.81995,-5.77986 7.6398,-9.47736 3.70507,-1.8149 6.94767,-4.4313 9.49886,-7.62164 0.96592,2.54131 1.49872,5.29386 1.49872,8.16951 z m 0,-25.38352 c 0,2.87565 -0.53315,5.6282 -1.49872,8.1696 -2.55119,-3.19043 -5.79379,-5.80683 -9.49886,-7.62173 -1.81985,-3.6975 -4.44223,-6.9327 -7.6398,-9.47736 2.54792,-0.96372 5.30672,-1.49608 8.1889,-1.49608 3.089,0 6.03656,0.61158 8.73403,1.71057 1.10234,2.69139 1.71445,5.63225 1.71445,8.715 z m -23.1695,-23.116977 c 7.30475,0 13.82591,3.392587 18.07603,8.678337 -1.73322,-0.34016 -3.52371,-0.51905 -5.35501,-0.51905 -4.5835,0 -8.90888,1.11618 -12.72102,3.09006 -3.81215,-1.97388 -8.13744,-3.09006 -12.72102,-3.09006 -1.8313,0 -3.62173,0.17978 -5.35496,0.51905 4.25015,-5.28575 10.77123,-8.678337 18.07598,-8.678337 z m 40.43321,35.808297 c 0,-10.89113 -6.34536,-20.33095 -15.54107,-24.83557 -4.51414,-9.17491 -13.97546,-15.505897 -24.89214,-15.505897 -10.91668,0 -20.37798,6.330987 -24.89207,15.505897 -9.19572,4.50462 -15.541112,13.94444 -15.541112,24.83557 0,10.89201 6.345392,20.33183 15.541112,24.83654 4.51409,9.17482 13.97539,15.50581 24.89207,15.50581 10.91668,0 20.378,-6.33099 24.89214,-15.50581 9.19571,-4.50471 15.54107,-13.94453 15.54107,-24.83654 z"
         id="Fill-1"
         fill="#313048"
         style="stroke-width:1.1674;fill:#646384;fill-opacity:1" />
    </g>
  </g>
</svg>
