<?xml version="1.0" encoding="UTF-8" standalone="no"?>
<!-- Created with Inkscape (http://www.inkscape.org/) -->

<svg
   width="1000"
   height="1000"
   viewBox="0 0 264.58333 264.58333"
   version="1.1"
   id="svg5"
   inkscape:version="1.2 (dc2aeda, 2022-05-15)"
   sodipodi:docname="acme_logo.svg"
   xmlns:inkscape="http://www.inkscape.org/namespaces/inkscape"
   xmlns:sodipodi="http://sodipodi.sourceforge.net/DTD/sodipodi-0.dtd"
   xmlns="http://www.w3.org/2000/svg"
   xmlns:svg="http://www.w3.org/2000/svg">
  <sodipodi:namedview
     id="namedview7"
     pagecolor="#ffffff"
     bordercolor="#000000"
     borderopacity="0.25"
     inkscape:showpageshadow="2"
     inkscape:pageopacity="0.0"
     inkscape:pagecheckerboard="0"
     inkscape:deskcolor="#d1d1d1"
     inkscape:document-units="mm"
     showgrid="false"
     inkscape:zoom="0.914906"
     inkscape:cx="313.14692"
     inkscape:cy="619.18929"
     inkscape:window-width="2284"
     inkscape:window-height="1205"
     inkscape:window-x="1581"
     inkscape:window-y="130"
     inkscape:window-maximized="0"
     inkscape:current-layer="layer1" />
  <defs
     id="defs2" />
  <g
     inkscape:label="Layer 1"
     inkscape:groupmode="layer"
     id="layer1">
    <rect
       style="fill:#ffffff;stroke-width:0.264583"
       id="rect6626"
       width="264.58334"
       height="264.58334"
       x="-0.28919181"
       y="0.28919181"
       ry="48.873417"
       inkscape:export-filename="acme_icon.png"
       inkscape:export-xdpi="96"
       inkscape:export-ydpi="96" />
    <g
       id="g6745"
       transform="matrix(1.9972681,0,0,1.9972681,-147.18403,-174.62983)"
       inkscape:export-filename="acme_logo.png"
       inkscape:export-xdpi="96"
       inkscape:export-ydpi="96">
      <g
         id="g5220"
         transform="matrix(1.603202,0,0,1.603202,-48.582216,160.9022)"
         style="fill:#67536c;fill-opacity:1" />
      <path
         d="m 174.77064,175.75167 c 0.42428,-2.15142 0.64902,-4.37375 0.64902,-6.64685 0,-5.68823 -1.39276,-11.05809 -3.85299,-15.7899 2.46023,-4.73071 3.85299,-10.10057 3.85299,-15.7888 0,-2.27409 -0.22474,-4.49544 -0.64902,-6.64686 6.59073,5.2745 10.82195,13.36979 10.82195,22.43566 0,9.06707 -4.23122,17.16128 -10.82195,22.43675 z m -33.82811,22.11213 c -9.08757,0 -17.20021,-4.22158 -22.48766,-10.7974 2.15624,0.42318 4.38365,0.64683 6.66191,0.64683 5.70226,0 11.08319,-1.38957 15.82575,-3.84422 4.74254,2.45465 10.12358,3.84422 15.82575,3.84422 2.27825,0 4.50573,-0.22365 6.66197,-0.64683 -5.28742,6.57582 -13.40015,10.7974 -22.48772,10.7974 z M 96.292505,153.31492 c 0,-9.06587 4.231185,-17.16116 10.821945,-22.43566 -0.42394,2.15142 -0.64858,4.37277 -0.64858,6.64686 0,5.68823 1.39278,11.05809 3.853,15.7888 -2.46022,4.73181 -3.853,10.10167 -3.853,15.7899 0,2.2731 0.22464,4.49543 0.64858,6.64685 -6.59076,-5.27547 -10.821945,-13.36968 -10.821945,-22.43675 z m 62.652385,6.64684 c 0.42428,-2.15129 0.64903,-4.37264 0.64903,-6.64684 0,-2.27299 -0.22475,-4.49544 -0.64792,-6.64674 2.35345,1.88457 4.4051,4.12719 6.07127,6.64674 -1.66617,2.52065 -3.71782,4.76327 -6.07227,6.64684 z m -24.66423,11.31574 c 2.15623,0.42317 4.38361,0.64683 6.66187,0.64683 2.27825,0 4.50574,-0.22366 6.66197,-0.64683 -1.88786,2.3482 -4.13563,4.396 -6.66197,6.05747 -2.52625,-1.66147 -4.77402,-3.70927 -6.66187,-6.05747 z m -11.34051,-24.60932 c -0.42537,2.1513 -0.64902,4.37375 -0.64902,6.64674 0,2.2742 0.22365,4.49555 0.64902,6.64684 -2.35444,-1.88357 -4.40599,-4.12619 -6.07223,-6.64684 1.66624,-2.51955 3.71779,-4.76217 6.07223,-6.64674 z m 31.00193,6.64674 c 0,3.83513 -0.76304,7.49387 -2.13387,10.84212 -3.35592,1.36831 -7.02288,2.12795 -10.86568,2.12795 -3.8428,0 -7.50977,-0.75975 -10.86569,-2.12795 -1.37138,-3.34825 -2.13388,-7.00699 -2.13388,-10.84212 0,-3.83403 0.76195,-7.49277 2.13388,-10.84102 3.35592,-1.36831 7.02289,-2.12795 10.86569,-2.12795 3.8428,0 7.50976,0.75975 10.86568,2.12795 1.37138,3.34825 2.13387,7.00699 2.13387,10.84102 z m -6.33758,-17.96148 c -2.15623,-0.42317 -4.38372,-0.64683 -6.66197,-0.64683 -2.27826,0 -4.50564,0.22475 -6.66187,0.64683 1.88785,-2.34918 4.13562,-4.396 6.66187,-6.05856 2.52634,1.66256 4.77411,3.70938 6.66197,6.05856 z m -35.48624,2.17268 c 0,-3.83514 0.7615,-7.49375 2.13287,-10.84201 3.35587,-1.36733 7.02283,-2.12806 10.86565,-2.12806 3.58561,0 7.01773,0.66218 10.18762,1.86122 -3.9781,3.16572 -7.2404,7.19051 -9.5044,11.79043 -4.6094,2.25785 -8.64336,5.51282 -11.81725,9.48192 -1.20166,-3.16166 -1.86449,-6.58601 -1.86449,-10.1635 z m 0,31.5787 c 0,-3.57749 0.66283,-7.00184 1.86449,-10.16339 3.17389,3.96899 7.20785,7.22395 11.81725,9.48181 2.264,4.59992 5.5263,8.62373 9.5044,11.79043 -3.16989,1.19893 -6.60201,1.86122 -10.18762,1.86122 -3.84282,0 -7.50978,-0.76085 -10.86565,-2.12904 -1.37142,-3.34826 -2.13287,-7.00689 -2.13287,-10.84103 z m 57.64859,0 c 0,3.83414 -0.76194,7.49277 -2.13289,10.84103 -3.35582,1.3683 -7.02277,2.12904 -10.86568,2.12904 -3.58562,0 -7.01774,-0.66218 -10.18751,-1.86122 3.97798,-3.1667 7.24038,-7.19051 9.50439,-11.79043 4.60934,-2.25786 8.64334,-5.51282 11.81718,-9.48181 1.20167,3.16155 1.86451,6.5859 1.86451,10.16339 z m 0,-31.5787 c 0,3.57749 -0.66328,7.00184 -1.86451,10.1635 -3.17384,-3.9691 -7.20784,-7.22407 -11.81718,-9.48192 -2.26401,-4.59992 -5.52641,-8.62471 -9.50439,-11.79043 3.16977,-1.19893 6.60189,-1.86122 10.18751,-1.86122 3.84291,0 7.50986,0.76085 10.86568,2.12806 1.37138,3.34826 2.13289,7.00687 2.13289,10.84201 z m -28.82432,-28.75898 c 9.08757,0 17.2003,4.2206 22.48772,10.7964 -2.15624,-0.42318 -4.38372,-0.64573 -6.66197,-0.64573 -5.70217,0 -11.08321,1.3886 -15.82575,3.84423 -4.74256,-2.45563 -10.12349,-3.84423 -15.82575,-3.84423 -2.27826,0 -4.50567,0.22366 -6.66191,0.64573 5.28745,-6.5758 13.40009,-10.7964 22.48766,-10.7964 z m 50.30146,44.54778 c 0,-13.54925 -7.89403,-25.29298 -19.33407,-30.89701 -5.61588,-11.41417 -17.38635,-19.29032 -30.96739,-19.29032 -13.58104,0 -25.3515,7.87615 -30.96731,19.29032 -11.440055,5.60403 -19.334123,17.34776 -19.334123,30.89701 0,13.55035 7.894068,25.29408 19.334123,30.89823 5.61581,11.41405 17.38627,19.2902 30.96731,19.2902 13.58104,0 25.35151,-7.87615 30.96739,-19.2902 11.44004,-5.60415 19.33407,-17.34788 19.33407,-30.89823 z"
         id="Fill-1"
         fill="#313048"
         style="fill:#646384;fill-opacity:1;stroke-width:1.45232" />
    </g>
  </g>
</svg>
